<svg width="100" height="60" viewBox="0 0 1017 610" fill="none" xmlns="http://www.w3.org/2000/svg">
<g clip-path="url(#clip0_2_6)">
<rect width="1017" height="610" rx="236" fill="#FF6900"/>
<mask id="path-2-outside-1_2_6" maskUnits="userSpaceOnUse" x="87" y="195" width="835" height="250" fill="black">
<rect fill="white" x="87" y="195" width="835" height="250"/>
<path d="M184.032 381.61C181.118 381.61 178.742 380.92 176.902 379.54C175.062 378.16 173.605 376.09 172.532 373.33L109.282 228.66C108.208 226.053 107.902 223.907 108.362 222.22C108.822 220.38 109.818 218.923 111.352 217.85C113.038 216.777 114.955 216.24 117.102 216.24C120.015 216.24 122.162 216.93 123.542 218.31C125.075 219.537 126.302 221.377 127.222 223.83L187.942 364.82H180.582L241.072 223.6C242.145 221.3 243.448 219.537 244.982 218.31C246.515 216.93 248.662 216.24 251.422 216.24C253.568 216.24 255.332 216.777 256.712 217.85C258.245 218.923 259.165 220.38 259.472 222.22C259.932 224.06 259.625 226.207 258.552 228.66L195.302 373.33C194.228 376.09 192.772 378.16 190.932 379.54C189.245 380.92 186.945 381.61 184.032 381.61ZM277.133 423.01C274.066 423.01 271.766 422.167 270.233 420.48C268.7 418.947 267.933 416.647 267.933 413.58V276.04C267.933 272.973 268.7 270.673 270.233 269.14C271.766 267.453 273.99 266.61 276.903 266.61C279.97 266.61 282.27 267.453 283.803 269.14C285.49 270.673 286.333 272.973 286.333 276.04V297.89L283.803 294.67C286.256 285.93 291.086 279.03 298.293 273.97C305.653 268.757 314.393 266.15 324.513 266.15C334.48 266.15 343.143 268.527 350.503 273.28C358.016 277.88 363.766 284.55 367.753 293.29C371.893 301.877 373.963 312.15 373.963 324.11C373.963 335.917 371.893 346.19 367.753 354.93C363.766 363.517 358.093 370.187 350.733 374.94C343.373 379.693 334.633 382.07 324.513 382.07C314.393 382.07 305.73 379.54 298.523 374.48C291.316 369.267 286.41 362.367 283.803 353.78H286.563V413.58C286.563 416.647 285.72 418.947 284.033 420.48C282.346 422.167 280.046 423.01 277.133 423.01ZM320.603 367.12C327.656 367.12 333.713 365.433 338.773 362.06C343.986 358.687 347.973 353.78 350.733 347.34C353.646 340.9 355.103 333.157 355.103 324.11C355.103 310.157 351.96 299.5 345.673 292.14C339.54 284.78 331.183 281.1 320.603 281.1C313.703 281.1 307.646 282.787 302.433 286.16C297.22 289.38 293.156 294.21 290.243 300.65C287.483 306.937 286.103 314.757 286.103 324.11C286.103 337.91 289.246 348.567 295.533 356.08C301.82 363.44 310.176 367.12 320.603 367.12ZM413.985 381.61C410.918 381.61 408.542 380.767 406.855 379.08C405.322 377.24 404.555 374.787 404.555 371.72V227.51C404.555 224.29 405.398 221.913 407.085 220.38C408.772 218.693 411.148 217.85 414.215 217.85H468.725C486.052 217.85 499.392 222.143 508.745 230.73C518.098 239.163 522.775 251.123 522.775 266.61C522.775 281.943 518.098 293.903 508.745 302.49C499.392 311.077 486.052 315.37 468.725 315.37H423.415V371.72C423.415 374.787 422.648 377.24 421.115 379.08C419.582 380.767 417.205 381.61 413.985 381.61ZM423.415 299.5H466.425C478.845 299.5 488.198 296.74 494.485 291.22C500.925 285.547 504.145 277.343 504.145 266.61C504.145 255.723 500.925 247.52 494.485 242C488.198 236.327 478.845 233.49 466.425 233.49H423.415V299.5ZM556.772 381.15C553.705 381.15 551.405 380.307 549.872 378.62C548.338 376.78 547.572 374.25 547.572 371.03V276.96C547.572 273.74 548.338 271.287 549.872 269.6C551.405 267.913 553.705 267.07 556.772 267.07C559.685 267.07 561.985 267.913 563.672 269.6C565.358 271.287 566.202 273.74 566.202 276.96V371.03C566.202 374.25 565.358 376.78 563.672 378.62C562.138 380.307 559.838 381.15 556.772 381.15ZM556.772 241.31C552.938 241.31 549.948 240.313 547.802 238.32C545.655 236.173 544.582 233.337 544.582 229.81C544.582 226.13 545.655 223.37 547.802 221.53C549.948 219.537 552.938 218.54 556.772 218.54C560.758 218.54 563.748 219.537 565.742 221.53C567.888 223.37 568.962 226.13 568.962 229.81C568.962 233.337 567.888 236.173 565.742 238.32C563.748 240.313 560.758 241.31 556.772 241.31ZM603.099 380C601.105 380 599.495 379.54 598.269 378.62C597.042 377.7 596.199 376.473 595.739 374.94C595.279 373.407 595.279 371.72 595.739 369.88C596.199 368.04 597.195 366.277 598.729 364.59L663.589 277.88V282.71H602.179C599.725 282.71 597.809 282.097 596.429 280.87C595.202 279.49 594.589 277.65 594.589 275.35C594.589 273.05 595.202 271.287 596.429 270.06C597.809 268.833 599.725 268.22 602.179 268.22H672.789C675.089 268.22 676.929 268.68 678.309 269.6C679.842 270.52 680.839 271.747 681.299 273.28C681.759 274.66 681.759 276.27 681.299 278.11C680.992 279.797 680.149 281.483 678.769 283.17L612.759 370.8V365.51H677.389C682.449 365.51 684.979 367.887 684.979 372.64C684.979 374.94 684.289 376.78 682.909 378.16C681.682 379.387 679.842 380 677.389 380H603.099ZM709.564 380C707.57 380 705.96 379.54 704.734 378.62C703.507 377.7 702.664 376.473 702.204 374.94C701.744 373.407 701.744 371.72 702.204 369.88C702.664 368.04 703.66 366.277 705.194 364.59L770.054 277.88V282.71H708.644C706.19 282.71 704.274 282.097 702.894 280.87C701.667 279.49 701.054 277.65 701.054 275.35C701.054 273.05 701.667 271.287 702.894 270.06C704.274 268.833 706.19 268.22 708.644 268.22H779.254C781.554 268.22 783.394 268.68 784.774 269.6C786.307 270.52 787.304 271.747 787.764 273.28C788.224 274.66 788.224 276.27 787.764 278.11C787.457 279.797 786.614 281.483 785.234 283.17L719.224 370.8V365.51H783.854C788.914 365.51 791.444 367.887 791.444 372.64C791.444 374.94 790.754 376.78 789.374 378.16C788.147 379.387 786.307 380 783.854 380H709.564ZM848.025 382.07C840.359 382.07 833.459 380.613 827.325 377.7C821.345 374.633 816.592 370.493 813.065 365.28C809.539 360.067 807.775 354.24 807.775 347.8C807.775 339.52 809.845 333.003 813.985 328.25C818.279 323.497 825.255 320.123 834.915 318.13C844.729 316.137 858.069 315.14 874.935 315.14H885.285V327.33H875.165C862.745 327.33 852.932 327.943 845.725 329.17C838.672 330.243 833.689 332.16 830.775 334.92C828.015 337.68 826.635 341.59 826.635 346.65C826.635 352.937 828.782 358.073 833.075 362.06C837.522 366.047 843.502 368.04 851.015 368.04C857.149 368.04 862.515 366.583 867.115 363.67C871.869 360.757 875.549 356.77 878.155 351.71C880.915 346.65 882.295 340.823 882.295 334.23V308.01C882.295 298.503 880.379 291.68 876.545 287.54C872.712 283.247 866.425 281.1 857.685 281.1C852.319 281.1 846.952 281.79 841.585 283.17C836.219 284.55 830.545 286.773 824.565 289.84C822.419 290.913 820.579 291.297 819.045 290.99C817.512 290.53 816.285 289.687 815.365 288.46C814.445 287.233 813.909 285.853 813.755 284.32C813.602 282.633 813.909 281.023 814.675 279.49C815.595 277.957 816.975 276.73 818.815 275.81C825.562 272.437 832.232 269.983 838.825 268.45C845.419 266.917 851.705 266.15 857.685 266.15C867.345 266.15 875.319 267.76 881.605 270.98C887.892 274.047 892.569 278.8 895.635 285.24C898.702 291.527 900.235 299.653 900.235 309.62V371.95C900.235 375.017 899.469 377.393 897.935 379.08C896.555 380.767 894.485 381.61 891.725 381.61C888.812 381.61 886.589 380.767 885.055 379.08C883.522 377.393 882.755 375.017 882.755 371.95V354.01H884.825C883.599 359.837 881.222 364.82 877.695 368.96C874.322 373.1 870.105 376.32 865.045 378.62C859.985 380.92 854.312 382.07 848.025 382.07Z"/>
</mask>
<path d="M184.032 381.61C181.118 381.61 178.742 380.92 176.902 379.54C175.062 378.16 173.605 376.09 172.532 373.33L109.282 228.66C108.208 226.053 107.902 223.907 108.362 222.22C108.822 220.38 109.818 218.923 111.352 217.85C113.038 216.777 114.955 216.24 117.102 216.24C120.015 216.24 122.162 216.93 123.542 218.31C125.075 219.537 126.302 221.377 127.222 223.83L187.942 364.82H180.582L241.072 223.6C242.145 221.3 243.448 219.537 244.982 218.31C246.515 216.93 248.662 216.24 251.422 216.24C253.568 216.24 255.332 216.777 256.712 217.85C258.245 218.923 259.165 220.38 259.472 222.22C259.932 224.06 259.625 226.207 258.552 228.66L195.302 373.33C194.228 376.09 192.772 378.16 190.932 379.54C189.245 380.92 186.945 381.61 184.032 381.61ZM277.133 423.01C274.066 423.01 271.766 422.167 270.233 420.48C268.7 418.947 267.933 416.647 267.933 413.58V276.04C267.933 272.973 268.7 270.673 270.233 269.14C271.766 267.453 273.99 266.61 276.903 266.61C279.97 266.61 282.27 267.453 283.803 269.14C285.49 270.673 286.333 272.973 286.333 276.04V297.89L283.803 294.67C286.256 285.93 291.086 279.03 298.293 273.97C305.653 268.757 314.393 266.15 324.513 266.15C334.48 266.15 343.143 268.527 350.503 273.28C358.016 277.88 363.766 284.55 367.753 293.29C371.893 301.877 373.963 312.15 373.963 324.11C373.963 335.917 371.893 346.19 367.753 354.93C363.766 363.517 358.093 370.187 350.733 374.94C343.373 379.693 334.633 382.07 324.513 382.07C314.393 382.07 305.73 379.54 298.523 374.48C291.316 369.267 286.41 362.367 283.803 353.78H286.563V413.58C286.563 416.647 285.72 418.947 284.033 420.48C282.346 422.167 280.046 423.01 277.133 423.01ZM320.603 367.12C327.656 367.12 333.713 365.433 338.773 362.06C343.986 358.687 347.973 353.78 350.733 347.34C353.646 340.9 355.103 333.157 355.103 324.11C355.103 310.157 351.96 299.5 345.673 292.14C339.54 284.78 331.183 281.1 320.603 281.1C313.703 281.1 307.646 282.787 302.433 286.16C297.22 289.38 293.156 294.21 290.243 300.65C287.483 306.937 286.103 314.757 286.103 324.11C286.103 337.91 289.246 348.567 295.533 356.08C301.82 363.44 310.176 367.12 320.603 367.12ZM413.985 381.61C410.918 381.61 408.542 380.767 406.855 379.08C405.322 377.24 404.555 374.787 404.555 371.72V227.51C404.555 224.29 405.398 221.913 407.085 220.38C408.772 218.693 411.148 217.85 414.215 217.85H468.725C486.052 217.85 499.392 222.143 508.745 230.73C518.098 239.163 522.775 251.123 522.775 266.61C522.775 281.943 518.098 293.903 508.745 302.49C499.392 311.077 486.052 315.37 468.725 315.37H423.415V371.72C423.415 374.787 422.648 377.24 421.115 379.08C419.582 380.767 417.205 381.61 413.985 381.61ZM423.415 299.5H466.425C478.845 299.5 488.198 296.74 494.485 291.22C500.925 285.547 504.145 277.343 504.145 266.61C504.145 255.723 500.925 247.52 494.485 242C488.198 236.327 478.845 233.49 466.425 233.49H423.415V299.5ZM556.772 381.15C553.705 381.15 551.405 380.307 549.872 378.62C548.338 376.78 547.572 374.25 547.572 371.03V276.96C547.572 273.74 548.338 271.287 549.872 269.6C551.405 267.913 553.705 267.07 556.772 267.07C559.685 267.07 561.985 267.913 563.672 269.6C565.358 271.287 566.202 273.74 566.202 276.96V371.03C566.202 374.25 565.358 376.78 563.672 378.62C562.138 380.307 559.838 381.15 556.772 381.15ZM556.772 241.31C552.938 241.31 549.948 240.313 547.802 238.32C545.655 236.173 544.582 233.337 544.582 229.81C544.582 226.13 545.655 223.37 547.802 221.53C549.948 219.537 552.938 218.54 556.772 218.54C560.758 218.54 563.748 219.537 565.742 221.53C567.888 223.37 568.962 226.13 568.962 229.81C568.962 233.337 567.888 236.173 565.742 238.32C563.748 240.313 560.758 241.31 556.772 241.31ZM603.099 380C601.105 380 599.495 379.54 598.269 378.62C597.042 377.7 596.199 376.473 595.739 374.94C595.279 373.407 595.279 371.72 595.739 369.88C596.199 368.04 597.195 366.277 598.729 364.59L663.589 277.88V282.71H602.179C599.725 282.71 597.809 282.097 596.429 280.87C595.202 279.49 594.589 277.65 594.589 275.35C594.589 273.05 595.202 271.287 596.429 270.06C597.809 268.833 599.725 268.22 602.179 268.22H672.789C675.089 268.22 676.929 268.68 678.309 269.6C679.842 270.52 680.839 271.747 681.299 273.28C681.759 274.66 681.759 276.27 681.299 278.11C680.992 279.797 680.149 281.483 678.769 283.17L612.759 370.8V365.51H677.389C682.449 365.51 684.979 367.887 684.979 372.64C684.979 374.94 684.289 376.78 682.909 378.16C681.682 379.387 679.842 380 677.389 380H603.099ZM709.564 380C707.57 380 705.96 379.54 704.734 378.62C703.507 377.7 702.664 376.473 702.204 374.94C701.744 373.407 701.744 371.72 702.204 369.88C702.664 368.04 703.66 366.277 705.194 364.59L770.054 277.88V282.71H708.644C706.19 282.71 704.274 282.097 702.894 280.87C701.667 279.49 701.054 277.65 701.054 275.35C701.054 273.05 701.667 271.287 702.894 270.06C704.274 268.833 706.19 268.22 708.644 268.22H779.254C781.554 268.22 783.394 268.68 784.774 269.6C786.307 270.52 787.304 271.747 787.764 273.28C788.224 274.66 788.224 276.27 787.764 278.11C787.457 279.797 786.614 281.483 785.234 283.17L719.224 370.8V365.51H783.854C788.914 365.51 791.444 367.887 791.444 372.64C791.444 374.94 790.754 376.78 789.374 378.16C788.147 379.387 786.307 380 783.854 380H709.564ZM848.025 382.07C840.359 382.07 833.459 380.613 827.325 377.7C821.345 374.633 816.592 370.493 813.065 365.28C809.539 360.067 807.775 354.24 807.775 347.8C807.775 339.52 809.845 333.003 813.985 328.25C818.279 323.497 825.255 320.123 834.915 318.13C844.729 316.137 858.069 315.14 874.935 315.14H885.285V327.33H875.165C862.745 327.33 852.932 327.943 845.725 329.17C838.672 330.243 833.689 332.16 830.775 334.92C828.015 337.68 826.635 341.59 826.635 346.65C826.635 352.937 828.782 358.073 833.075 362.06C837.522 366.047 843.502 368.04 851.015 368.04C857.149 368.04 862.515 366.583 867.115 363.67C871.869 360.757 875.549 356.77 878.155 351.71C880.915 346.65 882.295 340.823 882.295 334.23V308.01C882.295 298.503 880.379 291.68 876.545 287.54C872.712 283.247 866.425 281.1 857.685 281.1C852.319 281.1 846.952 281.79 841.585 283.17C836.219 284.55 830.545 286.773 824.565 289.84C822.419 290.913 820.579 291.297 819.045 290.99C817.512 290.53 816.285 289.687 815.365 288.46C814.445 287.233 813.909 285.853 813.755 284.32C813.602 282.633 813.909 281.023 814.675 279.49C815.595 277.957 816.975 276.73 818.815 275.81C825.562 272.437 832.232 269.983 838.825 268.45C845.419 266.917 851.705 266.15 857.685 266.15C867.345 266.15 875.319 267.76 881.605 270.98C887.892 274.047 892.569 278.8 895.635 285.24C898.702 291.527 900.235 299.653 900.235 309.62V371.95C900.235 375.017 899.469 377.393 897.935 379.08C896.555 380.767 894.485 381.61 891.725 381.61C888.812 381.61 886.589 380.767 885.055 379.08C883.522 377.393 882.755 375.017 882.755 371.95V354.01H884.825C883.599 359.837 881.222 364.82 877.695 368.96C874.322 373.1 870.105 376.32 865.045 378.62C859.985 380.92 854.312 382.07 848.025 382.07Z" fill="white"/>
<path d="M176.902 379.54L164.302 396.34L164.302 396.34L176.902 379.54ZM172.532 373.33L192.104 365.719L191.947 365.315L191.773 364.918L172.532 373.33ZM109.282 228.66L89.8634 236.656L89.9496 236.865L90.0402 237.072L109.282 228.66ZM108.362 222.22L128.622 227.745L128.68 227.53L128.735 227.313L108.362 222.22ZM111.352 217.85L100.077 200.133L99.6875 200.381L99.3089 200.646L111.352 217.85ZM123.542 218.31L108.692 233.159L109.515 233.982L110.423 234.708L123.542 218.31ZM127.222 223.83L107.559 231.204L107.735 231.675L107.934 232.136L127.222 223.83ZM187.942 364.82V385.82H219.85L207.229 356.514L187.942 364.82ZM180.582 364.82L161.278 356.551L148.741 385.82H180.582V364.82ZM241.072 223.6L222.042 214.719L221.9 215.023L221.768 215.331L241.072 223.6ZM244.982 218.31L258.1 234.708L258.577 234.327L259.03 233.919L244.982 218.31ZM256.712 217.85L243.819 234.426L244.236 234.751L244.669 235.054L256.712 217.85ZM259.472 222.22L238.757 225.672L238.895 226.5L239.099 227.313L259.472 222.22ZM258.552 228.66L239.312 220.243L239.31 220.248L258.552 228.66ZM195.302 373.33L176.06 364.918L175.887 365.315L175.73 365.719L195.302 373.33ZM190.932 379.54L178.332 362.74L177.977 363.006L177.634 363.287L190.932 379.54ZM184.032 360.61C184.438 360.61 186.836 360.741 189.502 362.74L164.302 396.34C170.647 401.099 177.799 402.61 184.032 402.61V360.61ZM189.502 362.74C191.581 364.3 192.159 365.86 192.104 365.719L152.96 380.941C155.051 386.32 158.542 392.02 164.302 396.34L189.502 362.74ZM191.773 364.918L128.523 220.248L90.0402 237.072L153.29 381.742L191.773 364.918ZM128.7 220.664C128.64 220.52 128.882 221.047 129.036 222.125C129.193 223.228 129.304 225.243 128.622 227.745L88.1016 216.695C85.8735 224.864 88.0254 232.192 89.8634 236.656L128.7 220.664ZM128.735 227.313C128.406 228.63 127.796 230.129 126.786 231.606C125.772 233.087 124.572 234.23 123.394 235.054L99.3089 200.646C93.5702 204.663 89.6578 210.45 87.9887 217.127L128.735 227.313ZM122.626 235.567C121.739 236.131 120.75 236.575 119.716 236.865C118.693 237.151 117.793 237.24 117.102 237.24V195.24C111.269 195.24 105.384 196.756 100.077 200.133L122.626 235.567ZM117.102 237.24C116.979 237.24 115.978 237.235 114.47 236.75C112.862 236.233 110.704 235.171 108.692 233.159L138.391 203.461C131.496 196.566 122.867 195.24 117.102 195.24V237.24ZM110.423 234.708C109.305 233.814 108.575 232.913 108.139 232.259C107.715 231.623 107.562 231.213 107.559 231.204L146.885 216.456C145.067 211.608 141.978 206.166 136.66 201.912L110.423 234.708ZM107.934 232.136L168.654 373.126L207.229 356.514L146.509 215.524L107.934 232.136ZM187.942 343.82H180.582V385.82H187.942V343.82ZM199.885 373.089L260.375 231.869L221.768 215.331L161.278 356.551L199.885 373.089ZM260.102 232.481C260.195 232.281 259.716 233.415 258.1 234.708L231.863 201.912C227.18 205.658 224.095 210.319 222.042 214.719L260.102 232.481ZM259.03 233.919C255.562 237.041 252.069 237.24 251.422 237.24V195.24C245.255 195.24 237.468 196.819 230.933 202.701L259.03 233.919ZM251.422 237.24C249.99 237.24 246.903 236.825 243.819 234.426L269.604 201.274C263.761 196.728 257.147 195.24 251.422 195.24V237.24ZM244.669 235.054C243.352 234.132 241.949 232.786 240.796 230.961C239.643 229.136 239.025 227.281 238.757 225.672L280.186 218.768C278.949 211.344 274.89 204.941 268.754 200.646L244.669 235.054ZM239.099 227.313C238.051 223.122 239.273 220.333 239.312 220.243L277.791 237.077C279.977 232.08 281.813 224.998 279.845 217.127L239.099 227.313ZM239.31 220.248L176.06 364.918L214.543 381.742L277.793 237.072L239.31 220.248ZM175.73 365.719C175.675 365.86 176.252 364.3 178.332 362.74L203.532 396.34C209.291 392.02 212.782 386.32 214.874 380.941L175.73 365.719ZM177.634 363.287C180.796 360.699 183.735 360.61 184.032 360.61V402.61C190.155 402.61 197.694 401.141 204.23 395.793L177.634 363.287ZM270.233 420.48L285.772 406.354L285.436 405.984L285.082 405.631L270.233 420.48ZM270.233 269.14L285.082 283.989L285.436 283.636L285.772 283.266L270.233 269.14ZM283.803 269.14L268.264 283.266L268.937 284.006L269.677 284.679L283.803 269.14ZM286.333 297.89L269.82 310.864L307.333 358.608V297.89H286.333ZM283.803 294.67L263.585 288.995L260.703 299.26L267.29 307.644L283.803 294.67ZM298.293 273.97L310.36 291.157L310.396 291.132L310.431 291.107L298.293 273.97ZM350.503 273.28L339.11 290.921L339.322 291.058L339.538 291.19L350.503 273.28ZM367.753 293.29L348.647 302.005L348.74 302.209L348.837 302.41L367.753 293.29ZM367.753 354.93L348.775 345.94L348.74 346.013L348.706 346.087L367.753 354.93ZM350.733 374.94L339.34 357.299L350.733 374.94ZM298.523 374.48L286.215 391.495L286.335 391.582L286.456 391.667L298.523 374.48ZM283.803 353.78V332.78H255.482L263.709 359.88L283.803 353.78ZM286.563 353.78H307.563V332.78H286.563V353.78ZM284.033 420.48L269.907 404.941L269.537 405.277L269.184 405.631L284.033 420.48ZM338.773 362.06L327.365 344.429L327.244 344.507L327.124 344.587L338.773 362.06ZM350.733 347.34L331.6 338.684L331.514 338.875L331.431 339.068L350.733 347.34ZM345.673 292.14L329.54 305.584L329.622 305.682L329.705 305.779L345.673 292.14ZM302.433 286.16L313.468 304.027L313.656 303.911L313.841 303.791L302.433 286.16ZM290.243 300.65L271.11 291.994L271.062 292.101L271.015 292.208L290.243 300.65ZM295.533 356.08L279.427 369.556L279.496 369.638L279.565 369.719L295.533 356.08ZM277.133 402.01C277.47 402.01 278.671 402.05 280.337 402.661C282.124 403.316 284.092 404.506 285.772 406.354L254.694 434.606C261.448 442.035 270.286 444.01 277.133 444.01V402.01ZM285.082 405.631C288.876 409.425 288.933 413.41 288.933 413.58H246.933C246.933 419.884 248.523 428.469 255.384 435.329L285.082 405.631ZM288.933 413.58V276.04H246.933V413.58H288.933ZM288.933 276.04C288.933 276.21 288.876 280.195 285.082 283.989L255.384 254.291C248.523 261.151 246.933 269.736 246.933 276.04H288.933ZM285.772 283.266C284.216 284.978 282.342 286.178 280.498 286.877C278.762 287.536 277.437 287.61 276.903 287.61V245.61C269.825 245.61 261.25 247.802 254.694 255.014L285.772 283.266ZM276.903 287.61C276.566 287.61 275.365 287.57 273.699 286.959C271.912 286.304 269.945 285.114 268.264 283.266L299.342 255.014C292.588 247.585 283.75 245.61 276.903 245.61V287.61ZM269.677 284.679C267.829 282.999 266.639 281.031 265.984 279.244C265.373 277.578 265.333 276.377 265.333 276.04H307.333C307.333 269.193 305.358 260.355 297.929 253.601L269.677 284.679ZM265.333 276.04V297.89H307.333V276.04H265.333ZM302.846 284.916L300.316 281.696L267.29 307.644L269.82 310.864L302.846 284.916ZM304.022 300.345C305.21 296.111 307.248 293.342 310.36 291.157L286.226 256.783C274.925 264.718 267.303 275.749 263.585 288.995L304.022 300.345ZM310.431 291.107C313.817 288.709 318.188 287.15 324.513 287.15V245.15C310.598 245.15 297.489 248.805 286.155 256.833L310.431 291.107ZM324.513 287.15C331.01 287.15 335.596 288.651 339.11 290.921L361.896 255.639C350.691 248.402 337.95 245.15 324.513 245.15V287.15ZM339.538 291.19C343.159 293.407 346.233 296.713 348.647 302.005L386.859 284.575C381.3 272.387 372.874 262.353 361.468 255.37L339.538 291.19ZM348.837 302.41C351.302 307.522 352.963 314.525 352.963 324.11H394.963C394.963 309.775 392.484 296.231 386.669 284.17L348.837 302.41ZM352.963 324.11C352.963 333.481 351.323 340.561 348.775 345.94L386.732 363.92C392.464 351.819 394.963 338.353 394.963 324.11H352.963ZM348.706 346.087C346.249 351.378 343.101 354.87 339.34 357.299L362.126 392.581C373.085 385.503 381.284 375.655 386.8 363.773L348.706 346.087ZM339.34 357.299C335.877 359.536 331.233 361.07 324.513 361.07V403.07C338.034 403.07 350.869 399.851 362.126 392.581L339.34 357.299ZM324.513 361.07C318.045 361.07 313.753 359.514 310.59 357.293L286.456 391.667C297.706 399.566 310.741 403.07 324.513 403.07V361.07ZM310.832 357.465C307.379 354.967 305.184 351.918 303.898 347.68L263.709 359.88C267.636 372.816 275.254 383.566 286.215 391.495L310.832 357.465ZM283.803 374.78H286.563V332.78H283.803V374.78ZM265.563 353.78V413.58H307.563V353.78H265.563ZM265.563 413.58C265.563 413.243 265.603 412.042 266.214 410.376C266.869 408.589 268.059 406.621 269.907 404.941L298.159 436.019C305.588 429.265 307.563 420.427 307.563 413.58H265.563ZM269.184 405.631C270.556 404.258 272.18 403.26 273.814 402.661C275.372 402.09 276.579 402.01 277.133 402.01V444.01C284.304 444.01 292.418 441.794 298.882 435.329L269.184 405.631ZM320.603 388.12C331.123 388.12 341.387 385.556 350.422 379.533L327.124 344.587C326.039 345.31 324.19 346.12 320.603 346.12V388.12ZM350.181 379.691C359.335 373.768 365.85 365.377 370.035 355.612L331.431 339.068C330.096 342.183 328.638 343.605 327.365 344.429L350.181 379.691ZM369.866 355.996C374.303 346.187 376.103 335.337 376.103 324.11H334.103C334.103 330.976 332.99 335.613 331.6 338.684L369.866 355.996ZM376.103 324.11C376.103 307.323 372.349 291.037 361.641 278.501L329.705 305.779C331.57 307.963 334.103 312.991 334.103 324.11H376.103ZM361.806 278.696C351.234 266.011 336.68 260.1 320.603 260.1V302.1C325.686 302.1 327.845 303.549 329.54 305.584L361.806 278.696ZM320.603 260.1C310.121 260.1 300.008 262.716 291.025 268.529L313.841 303.791C315.285 302.857 317.285 302.1 320.603 302.1V260.1ZM291.398 268.293C282.106 274.032 275.474 282.348 271.11 291.994L309.376 309.306C310.839 306.072 312.334 304.728 313.468 304.027L291.398 268.293ZM271.015 292.208C266.745 301.934 265.103 312.841 265.103 324.11H307.103C307.103 316.672 308.221 311.939 309.472 309.092L271.015 292.208ZM265.103 324.11C265.103 340.85 268.903 356.978 279.427 369.556L311.639 342.604C309.59 340.155 307.103 334.97 307.103 324.11H265.103ZM279.565 369.719C290.178 382.144 304.571 388.12 320.603 388.12V346.12C315.782 346.12 313.461 344.736 311.501 342.441L279.565 369.719ZM406.855 379.08L390.722 392.524L391.332 393.256L392.006 393.929L406.855 379.08ZM407.085 220.38L421.211 235.919L421.581 235.583L421.934 235.229L407.085 220.38ZM508.745 230.73L494.543 246.2L494.613 246.263L494.683 246.326L508.745 230.73ZM508.745 302.49L494.543 287.02L508.745 302.49ZM423.415 315.37V294.37H402.415V315.37H423.415ZM421.115 379.08L436.654 393.206L436.958 392.871L437.248 392.524L421.115 379.08ZM423.415 299.5H402.415V320.5H423.415V299.5ZM494.485 291.22L508.341 307L508.354 306.989L508.367 306.978L494.485 291.22ZM494.485 242L480.416 257.59L480.615 257.77L480.818 257.944L494.485 242ZM423.415 233.49V212.49H402.415V233.49H423.415ZM413.985 360.61C414.344 360.61 415.431 360.656 416.925 361.187C418.508 361.748 420.213 362.739 421.704 364.231L392.006 393.929C398.669 400.593 407.013 402.61 413.985 402.61V360.61ZM422.988 365.636C425.395 368.525 425.555 371.28 425.555 371.72H383.555C383.555 378.294 385.248 385.955 390.722 392.524L422.988 365.636ZM425.555 371.72V227.51H383.555V371.72H425.555ZM425.555 227.51C425.555 227.7 425.465 232.051 421.211 235.919L392.959 204.841C385.331 211.776 383.555 220.88 383.555 227.51H425.555ZM421.934 235.229C420.443 236.721 418.738 237.712 417.155 238.273C415.661 238.804 414.574 238.85 414.215 238.85V196.85C407.243 196.85 398.899 198.867 392.236 205.531L421.934 235.229ZM414.215 238.85H468.725V196.85H414.215V238.85ZM468.725 238.85C482.732 238.85 490.289 242.294 494.543 246.2L522.947 215.26C508.494 201.993 489.371 196.85 468.725 196.85V238.85ZM494.683 246.326C498.631 249.887 501.775 255.595 501.775 266.61H543.775C543.775 246.652 537.565 228.44 522.807 215.134L494.683 246.326ZM501.775 266.61C501.775 277.385 498.678 283.225 494.543 287.02L522.947 317.96C537.519 304.582 543.775 286.502 543.775 266.61H501.775ZM494.543 287.02C490.289 290.926 482.732 294.37 468.725 294.37V336.37C489.371 336.37 508.494 331.227 522.947 317.96L494.543 287.02ZM468.725 294.37H423.415V336.37H468.725V294.37ZM402.415 315.37V371.72H444.415V315.37H402.415ZM402.415 371.72C402.415 371.28 402.575 368.525 404.982 365.636L437.248 392.524C442.722 385.955 444.415 378.294 444.415 371.72H402.415ZM405.576 364.954C409.444 360.699 413.795 360.61 413.985 360.61V402.61C420.615 402.61 429.719 400.834 436.654 393.206L405.576 364.954ZM423.415 320.5H466.425V278.5H423.415V320.5ZM466.425 320.5C481.538 320.5 496.735 317.19 508.341 307L480.629 275.44C479.661 276.29 476.152 278.5 466.425 278.5V320.5ZM508.367 306.978C520.426 296.354 525.145 281.745 525.145 266.61H483.145C483.145 272.942 481.424 274.739 480.603 275.462L508.367 306.978ZM525.145 266.61C525.145 251.459 520.497 236.638 508.152 226.056L480.818 257.944C481.352 258.402 483.145 259.988 483.145 266.61H525.145ZM508.554 226.41C496.946 215.934 481.66 212.49 466.425 212.49V254.49C476.029 254.49 479.451 256.72 480.416 257.59L508.554 226.41ZM466.425 212.49H423.415V254.49H466.425V212.49ZM402.415 233.49V299.5H444.415V233.49H402.415ZM549.872 378.62L533.739 392.064L534.029 392.411L534.333 392.746L549.872 378.62ZM563.672 269.6L578.521 254.751L578.521 254.751L563.672 269.6ZM563.672 378.62L548.192 364.43L548.162 364.462L548.133 364.494L563.672 378.62ZM547.802 238.32L532.953 253.169L533.227 253.444L533.512 253.709L547.802 238.32ZM547.802 221.53L561.468 237.474L561.785 237.203L562.091 236.919L547.802 221.53ZM565.742 221.53L550.893 236.379L551.463 236.95L552.075 237.474L565.742 221.53ZM565.742 238.32L550.893 223.471L550.893 223.471L565.742 238.32ZM556.772 360.15C557.109 360.15 558.31 360.19 559.976 360.801C561.763 361.456 563.73 362.646 565.411 364.494L534.333 392.746C541.087 400.175 549.925 402.15 556.772 402.15V360.15ZM566.004 365.176C567.217 366.631 567.897 368.106 568.244 369.252C568.573 370.337 568.572 371.009 568.572 371.03H526.572C526.572 377.465 528.123 385.324 533.739 392.064L566.004 365.176ZM568.572 371.03V276.96H526.572V371.03H568.572ZM568.572 276.96C568.572 276.962 568.578 277.731 568.191 278.969C567.779 280.286 566.948 282.035 565.411 283.726L534.333 255.474C528.067 262.366 526.572 270.666 526.572 276.96H568.572ZM565.411 283.726C563.73 285.574 561.763 286.764 559.976 287.419C558.31 288.03 557.109 288.07 556.772 288.07V246.07C549.925 246.07 541.087 248.045 534.333 255.474L565.411 283.726ZM556.772 288.07C556.217 288.07 555.01 287.99 553.452 287.419C551.819 286.82 550.195 285.821 548.823 284.449L578.521 254.751C572.056 248.286 563.942 246.07 556.772 246.07V288.07ZM548.823 284.449C545.35 280.976 545.202 277.305 545.202 276.96H587.202C587.202 270.175 585.367 261.597 578.521 254.751L548.823 284.449ZM545.202 276.96V371.03H587.202V276.96H545.202ZM545.202 371.03C545.202 370.836 545.225 369.969 545.647 368.702C546.094 367.361 546.906 365.832 548.192 364.43L579.152 392.81C585.325 386.076 587.202 377.932 587.202 371.03H545.202ZM548.133 364.494C549.813 362.646 551.781 361.456 553.567 360.801C555.234 360.19 556.435 360.15 556.772 360.15V402.15C563.619 402.15 572.457 400.175 579.211 392.746L548.133 364.494ZM556.772 220.31C556.641 220.31 557.244 220.29 558.295 220.64C559.425 221.017 560.805 221.737 562.091 222.931L533.512 253.709C540.621 260.31 549.32 262.31 556.772 262.31V220.31ZM562.651 223.471C563.681 224.5 564.51 225.782 565.028 227.151C565.523 228.46 565.582 229.441 565.582 229.81H523.582C523.582 237.933 526.229 246.446 532.953 253.169L562.651 223.471ZM565.582 229.81C565.582 229.964 565.564 231.035 564.959 232.591C564.304 234.275 563.145 236.037 561.468 237.474L534.135 205.586C526.018 212.543 523.582 221.975 523.582 229.81H565.582ZM562.091 236.919C560.805 238.113 559.425 238.833 558.295 239.21C557.244 239.56 556.641 239.54 556.772 239.54V197.54C549.32 197.54 540.621 199.54 533.512 206.141L562.091 236.919ZM556.772 239.54C557.521 239.54 554.226 239.713 550.893 236.379L580.591 206.681C573.27 199.36 563.996 197.54 556.772 197.54V239.54ZM552.075 237.474C550.399 236.037 549.239 234.275 548.585 232.591C547.979 231.035 547.962 229.964 547.962 229.81H589.962C589.962 221.975 587.525 212.543 579.408 205.586L552.075 237.474ZM547.962 229.81C547.962 229.441 548.02 228.46 548.516 227.151C549.034 225.782 549.863 224.5 550.893 223.471L580.591 253.169C587.315 246.446 589.962 237.933 589.962 229.81H547.962ZM550.893 223.471C554.226 220.137 557.521 220.31 556.772 220.31V262.31C563.996 262.31 573.27 260.49 580.591 253.169L550.893 223.471ZM595.739 374.94L615.853 368.906L615.853 368.906L595.739 374.94ZM595.739 369.88L616.112 374.973L616.112 374.973L595.739 369.88ZM598.729 364.59L614.268 378.716L614.943 377.973L615.545 377.169L598.729 364.59ZM663.589 277.88H684.589V214.746L646.773 265.301L663.589 277.88ZM663.589 282.71V303.71H684.589V282.71H663.589ZM596.429 280.87L580.733 294.822L581.554 295.745L582.477 296.566L596.429 280.87ZM596.429 270.06L582.477 254.364L582.016 254.774L581.58 255.211L596.429 270.06ZM678.309 269.6L666.66 287.073L667.076 287.35L667.504 287.607L678.309 269.6ZM681.299 273.28L661.184 279.314L661.276 279.619L661.376 279.921L681.299 273.28ZM681.299 278.11L660.926 273.017L660.76 273.68L660.638 274.353L681.299 278.11ZM678.769 283.17L662.516 269.872L662.249 270.198L661.995 270.535L678.769 283.17ZM612.759 370.8H591.759V433.581L629.532 383.435L612.759 370.8ZM612.759 365.51V344.51H591.759V365.51H612.759ZM682.909 378.16L668.06 363.311L668.06 363.311L682.909 378.16ZM603.099 359C604.284 359 607.502 359.295 610.869 361.82L585.669 395.42C591.489 399.785 597.927 401 603.099 401V359ZM610.869 361.82C613.399 363.717 615.084 366.342 615.853 368.906L575.624 380.974C577.314 386.605 580.686 391.683 585.669 395.42L610.869 361.82ZM615.853 368.906C616.664 371.61 616.397 373.831 616.112 374.973L575.366 364.787C574.16 369.609 573.893 375.204 575.624 380.974L615.853 368.906ZM616.112 374.973C615.577 377.113 614.598 378.352 614.268 378.716L583.19 350.464C579.793 354.201 576.821 358.967 575.366 364.787L616.112 374.973ZM615.545 377.169L680.405 290.459L646.773 265.301L581.913 352.011L615.545 377.169ZM642.589 277.88V282.71H684.589V277.88H642.589ZM663.589 261.71H602.179V303.71H663.589V261.71ZM602.179 261.71C603.15 261.71 606.801 261.993 610.38 265.174L582.477 296.566C588.817 302.201 596.301 303.71 602.179 303.71V261.71ZM612.124 266.918C615.097 270.262 615.589 273.82 615.589 275.35H573.589C573.589 281.48 575.308 288.718 580.733 294.822L612.124 266.918ZM615.589 275.35C615.589 276.741 615.144 281.043 611.278 284.909L581.58 255.211C575.26 261.53 573.589 269.359 573.589 275.35H615.589ZM610.38 285.756C606.801 288.937 603.15 289.22 602.179 289.22V247.22C596.301 247.22 588.817 248.729 582.477 254.364L610.38 285.756ZM602.179 289.22H672.789V247.22H602.179V289.22ZM672.789 289.22C672.493 289.22 669.826 289.184 666.66 287.073L689.958 252.127C684.032 248.176 677.685 247.22 672.789 247.22V289.22ZM667.504 287.607C666.449 286.974 665.138 285.967 663.908 284.452C662.653 282.908 661.733 281.142 661.184 279.314L701.413 267.246C699.27 260.103 694.567 254.865 689.113 251.593L667.504 287.607ZM661.376 279.921C660.243 276.52 660.707 273.894 660.926 273.017L701.672 283.203C702.811 278.646 703.275 272.8 701.221 266.639L661.376 279.921ZM660.638 274.353C661.118 271.712 662.24 270.209 662.516 269.872L695.022 296.468C698.058 292.758 700.866 287.881 701.96 281.867L660.638 274.353ZM661.995 270.535L595.985 358.165L629.532 383.435L695.542 295.805L661.995 270.535ZM633.759 370.8V365.51H591.759V370.8H633.759ZM612.759 386.51H677.389V344.51H612.759V386.51ZM677.389 386.51C676.997 386.51 672.796 386.443 668.703 382.598C664.363 378.521 663.979 373.848 663.979 372.64H705.979C705.979 366.679 704.33 358.44 697.46 351.987C690.836 345.765 682.84 344.51 677.389 344.51V386.51ZM663.979 372.64C663.979 371.693 664.123 370.174 664.798 368.371C665.498 366.505 666.615 364.756 668.06 363.311L697.758 393.009C703.774 386.994 705.979 379.439 705.979 372.64H663.979ZM668.06 363.311C672.16 359.21 676.605 359 677.389 359V401C683.079 401 691.204 399.563 697.758 393.009L668.06 363.311ZM677.389 359H603.099V401H677.389V359ZM702.204 374.94L722.318 368.906L722.318 368.906L702.204 374.94ZM702.204 369.88L722.577 374.973L722.577 374.973L702.204 369.88ZM705.194 364.59L720.732 378.716L721.408 377.973L722.01 377.169L705.194 364.59ZM770.054 277.88H791.054V214.746L753.238 265.301L770.054 277.88ZM770.054 282.71V303.71H791.054V282.71H770.054ZM702.894 280.87L687.198 294.822L688.019 295.745L688.942 296.566L702.894 280.87ZM702.894 270.06L688.942 254.364L688.481 254.774L688.044 255.211L702.894 270.06ZM784.774 269.6L773.125 287.073L773.541 287.35L773.969 287.607L784.774 269.6ZM787.764 273.28L767.649 279.314L767.741 279.619L767.841 279.921L787.764 273.28ZM787.764 278.11L767.391 273.017L767.225 273.68L767.102 274.353L787.764 278.11ZM785.234 283.17L768.981 269.872L768.714 270.198L768.46 270.535L785.234 283.17ZM719.224 370.8H698.224V433.581L735.997 383.435L719.224 370.8ZM719.224 365.51V344.51H698.224V365.51H719.224ZM789.374 378.16L774.524 363.311L774.524 363.311L789.374 378.16ZM709.564 359C710.749 359 713.967 359.295 717.334 361.82L692.134 395.42C697.954 399.785 704.392 401 709.564 401V359ZM717.334 361.82C719.863 363.717 721.549 366.342 722.318 368.906L682.089 380.974C683.778 386.605 687.151 391.683 692.134 395.42L717.334 361.82ZM722.318 368.906C723.129 371.61 722.862 373.831 722.577 374.973L681.831 364.787C680.625 369.609 680.358 375.204 682.089 380.974L722.318 368.906ZM722.577 374.973C722.042 377.113 721.063 378.352 720.732 378.716L689.655 350.464C686.257 354.201 683.286 358.967 681.831 364.787L722.577 374.973ZM722.01 377.169L786.87 290.459L753.238 265.301L688.378 352.011L722.01 377.169ZM749.054 277.88V282.71H791.054V277.88H749.054ZM770.054 261.71H708.644V303.71H770.054V261.71ZM708.644 261.71C709.615 261.71 713.266 261.993 716.845 265.174L688.942 296.566C695.281 302.201 702.766 303.71 708.644 303.71V261.71ZM718.589 266.918C721.561 270.262 722.054 273.82 722.054 275.35H680.054C680.054 281.48 681.773 288.718 687.198 294.822L718.589 266.918ZM722.054 275.35C722.054 276.741 721.609 281.043 717.743 284.909L688.044 255.211C681.725 261.53 680.054 269.359 680.054 275.35H722.054ZM716.845 285.756C713.266 288.937 709.615 289.22 708.644 289.22V247.22C702.766 247.22 695.281 248.729 688.942 254.364L716.845 285.756ZM708.644 289.22H779.254V247.22H708.644V289.22ZM779.254 289.22C778.957 289.22 776.291 289.184 773.125 287.073L796.422 252.127C790.497 248.176 784.15 247.22 779.254 247.22V289.22ZM773.969 287.607C772.914 286.974 771.603 285.967 770.373 284.452C769.118 282.908 768.198 281.142 767.649 279.314L807.878 267.246C805.735 260.103 801.032 254.865 795.578 251.593L773.969 287.607ZM767.841 279.921C766.708 276.52 767.171 273.894 767.391 273.017L808.137 283.203C809.276 278.646 809.74 272.8 807.686 266.639L767.841 279.921ZM767.102 274.353C767.583 271.712 768.705 270.209 768.981 269.872L801.487 296.468C804.522 292.758 807.331 287.881 808.425 281.867L767.102 274.353ZM768.46 270.535L702.45 358.165L735.997 383.435L802.007 295.805L768.46 270.535ZM740.224 370.8V365.51H698.224V370.8H740.224ZM719.224 386.51H783.854V344.51H719.224V386.51ZM783.854 386.51C783.462 386.51 779.261 386.443 775.168 382.598C770.828 378.521 770.444 373.848 770.444 372.64H812.444C812.444 366.679 810.794 358.44 803.924 351.987C797.301 345.765 789.305 344.51 783.854 344.51V386.51ZM770.444 372.64C770.444 371.693 770.587 370.174 771.263 368.371C771.963 366.505 773.08 364.756 774.524 363.311L804.223 393.009C810.238 386.994 812.444 379.439 812.444 372.64H770.444ZM774.524 363.311C778.625 359.21 783.07 359 783.854 359V401C789.544 401 797.669 399.563 804.223 393.009L774.524 363.311ZM783.854 359H709.564V401H783.854V359ZM827.325 377.7L817.743 396.386L818.027 396.532L818.315 396.669L827.325 377.7ZM813.065 365.28L830.459 353.514L830.459 353.514L813.065 365.28ZM813.985 328.25L798.401 314.174L798.274 314.315L798.15 314.458L813.985 328.25ZM834.915 318.13L830.735 297.55L830.703 297.557L830.672 297.563L834.915 318.13ZM885.285 315.14H906.285V294.14H885.285V315.14ZM885.285 327.33V348.33H906.285V327.33H885.285ZM845.725 329.17L848.885 349.931L849.067 349.903L849.249 349.872L845.725 329.17ZM830.775 334.92L816.333 319.675L816.127 319.87L815.926 320.071L830.775 334.92ZM833.075 362.06L818.786 377.449L818.92 377.573L819.057 377.696L833.075 362.06ZM867.115 363.67L856.142 345.765L856.01 345.846L855.879 345.929L867.115 363.67ZM878.155 351.71L859.72 341.654L859.601 341.872L859.487 342.093L878.155 351.71ZM876.545 287.54L860.881 301.526L861.007 301.668L861.137 301.808L876.545 287.54ZM841.585 283.17L836.356 262.832L836.356 262.832L841.585 283.17ZM824.565 289.84L833.957 308.623L834.053 308.575L834.148 308.526L824.565 289.84ZM819.045 290.99L813.011 311.104L813.958 311.388L814.927 311.582L819.045 290.99ZM815.365 288.46L832.165 275.86L832.165 275.86L815.365 288.46ZM813.755 284.32L792.842 286.221L792.85 286.315L792.86 286.41L813.755 284.32ZM814.675 279.49L796.668 268.686L796.253 269.377L795.893 270.099L814.675 279.49ZM818.815 275.81L828.207 294.593L828.207 294.593L818.815 275.81ZM838.825 268.45L843.582 288.904L843.582 288.904L838.825 268.45ZM881.605 270.98L872.032 289.671L872.214 289.764L872.399 289.854L881.605 270.98ZM895.635 285.24L876.675 294.269L876.718 294.358L876.761 294.447L895.635 285.24ZM897.935 379.08L882.397 364.954L882.029 365.359L881.682 365.782L897.935 379.08ZM882.755 354.01V333.01H861.755V354.01H882.755ZM884.825 354.01L905.375 358.336L910.707 333.01H884.825V354.01ZM877.695 368.96L861.709 355.342L861.561 355.517L861.416 355.695L877.695 368.96ZM865.045 378.62L856.356 359.502L856.356 359.502L865.045 378.62ZM848.025 361.07C843.072 361.07 839.31 360.144 836.336 358.731L818.315 396.669C827.608 401.083 837.646 403.07 848.025 403.07V361.07ZM836.908 359.014C833.853 357.447 831.872 355.602 830.459 353.514L795.672 377.046C801.312 385.385 808.838 391.82 817.743 396.386L836.908 359.014ZM830.459 353.514C829.34 351.859 828.775 350.149 828.775 347.8H786.775C786.775 358.331 789.737 368.274 795.672 377.046L830.459 353.514ZM828.775 347.8C828.775 345.378 829.081 343.882 829.343 343.06C829.582 342.305 829.793 342.075 829.821 342.042L798.15 314.458C789.752 324.1 786.775 336.068 786.775 347.8H828.775ZM829.57 342.326C829.644 342.244 831.658 340.245 839.159 338.697L830.672 297.563C818.853 300.002 806.914 304.75 798.401 314.174L829.57 342.326ZM839.096 338.71C846.917 337.121 858.66 336.14 874.935 336.14V294.14C857.478 294.14 842.541 295.152 830.735 297.55L839.096 338.71ZM874.935 336.14H885.285V294.14H874.935V336.14ZM864.285 315.14V327.33H906.285V315.14H864.285ZM885.285 306.33H875.165V348.33H885.285V306.33ZM875.165 306.33C862.259 306.33 851.1 306.953 842.202 308.468L849.249 349.872C854.764 348.934 863.232 348.33 875.165 348.33V306.33ZM842.566 308.409C834.167 309.687 823.958 312.451 816.333 319.675L845.218 350.165C844.14 351.187 843.508 351.293 844.237 351.013C844.934 350.745 846.389 350.311 848.885 349.931L842.566 308.409ZM815.926 320.071C808.158 327.839 805.635 337.743 805.635 346.65H847.635C847.635 345.994 847.728 346.189 847.473 346.912C847.186 347.725 846.599 348.795 845.625 349.769L815.926 320.071ZM805.635 346.65C805.635 358.299 809.876 369.175 818.786 377.449L847.365 346.671C847.306 346.617 847.34 346.638 847.414 346.744C847.45 346.794 847.488 346.854 847.526 346.922C847.563 346.99 847.595 347.057 847.622 347.12C847.677 347.252 847.685 347.316 847.677 347.271C847.667 347.221 847.635 347.025 847.635 346.65H805.635ZM819.057 377.696C828.276 385.961 839.713 389.04 851.015 389.04V347.04C849.095 347.04 848.019 346.784 847.536 346.623C847.299 346.544 847.182 346.481 847.146 346.46C847.112 346.44 847.102 346.431 847.094 346.424L819.057 377.696ZM851.015 389.04C860.61 389.04 869.978 386.714 878.352 381.411L855.879 345.929C855.052 346.453 853.688 347.04 851.015 347.04V389.04ZM878.089 381.575C886.189 376.611 892.497 369.726 896.824 361.327L859.487 342.093C858.6 343.814 857.549 344.903 856.142 345.765L878.089 381.575ZM896.591 361.766C901.263 353.202 903.295 343.826 903.295 334.23H861.295C861.295 337.821 860.568 340.098 859.72 341.654L896.591 361.766ZM903.295 334.23V308.01H861.295V334.23H903.295ZM903.295 308.01C903.295 296.585 901.156 283.21 891.954 273.272L861.137 301.808C860.288 300.891 860.357 300.432 860.64 301.442C860.937 302.498 861.295 304.568 861.295 308.01H903.295ZM892.21 273.554C882.71 262.913 869.302 260.1 857.685 260.1V302.1C860.433 302.1 861.777 302.449 862.169 302.583C862.429 302.672 861.717 302.463 860.881 301.526L892.21 273.554ZM857.685 260.1C850.498 260.1 843.375 261.027 836.356 262.832L846.815 303.508C850.529 302.553 854.14 302.1 857.685 302.1V260.1ZM836.356 262.832C829.203 264.671 822.066 267.521 814.983 271.154L834.148 308.526C839.025 306.025 843.235 304.429 846.815 303.508L836.356 262.832ZM815.174 271.057C815.297 270.996 816.03 270.637 817.292 270.374C818.594 270.103 820.656 269.896 823.164 270.398L814.927 311.582C822.915 313.18 829.747 310.728 833.957 308.623L815.174 271.057ZM825.08 270.876C827.644 271.645 830.268 273.33 832.165 275.86L798.565 301.06C802.303 306.043 807.381 309.415 813.011 311.104L825.08 270.876ZM832.165 275.86C833.556 277.714 834.425 279.972 834.651 282.23L792.86 286.41C793.392 291.734 795.335 296.753 798.565 301.06L832.165 275.86ZM834.669 282.419C834.874 284.671 834.416 286.967 833.458 288.881L795.893 270.099C793.402 275.08 792.33 280.596 792.842 286.221L834.669 282.419ZM832.683 290.294C831.253 292.677 829.389 294.002 828.207 294.593L809.424 257.027C804.562 259.458 799.938 263.236 796.668 268.686L832.683 290.294ZM828.207 294.593C833.645 291.874 838.765 290.025 843.582 288.904L834.069 247.996C825.7 249.942 817.479 252.999 809.424 257.027L828.207 294.593ZM843.582 288.904C848.817 287.687 853.501 287.15 857.685 287.15V245.15C849.91 245.15 842.021 246.147 834.069 247.996L843.582 288.904ZM857.685 287.15C865.178 287.15 869.593 288.422 872.032 289.671L891.179 252.289C881.044 247.098 869.513 245.15 857.685 245.15V287.15ZM872.399 289.854C874.323 290.793 875.608 292.028 876.675 294.269L914.596 276.211C909.529 265.572 901.461 257.3 890.812 252.106L872.399 289.854ZM876.761 294.447C877.964 296.913 879.235 301.581 879.235 309.62H921.235C921.235 297.726 919.44 286.14 914.51 276.033L876.761 294.447ZM879.235 309.62V371.95H921.235V309.62H879.235ZM879.235 371.95C879.235 371.624 879.353 368.302 882.397 364.954L913.474 393.206C919.585 386.484 921.235 378.409 921.235 371.95H879.235ZM881.682 365.782C883.271 363.841 885.3 362.395 887.425 361.53C889.421 360.716 891.007 360.61 891.725 360.61V402.61C898.959 402.61 907.793 400.195 914.189 392.378L881.682 365.782ZM891.725 360.61C892.259 360.61 893.584 360.684 895.321 361.343C897.165 362.042 899.038 363.242 900.594 364.954L869.517 393.206C876.073 400.418 884.647 402.61 891.725 402.61V360.61ZM900.594 364.954C903.638 368.302 903.755 371.624 903.755 371.95H861.755C861.755 378.409 863.406 386.484 869.517 393.206L900.594 364.954ZM903.755 371.95V354.01H861.755V371.95H903.755ZM882.755 375.01H884.825V333.01H882.755V375.01ZM864.276 349.684C863.701 352.414 862.753 354.118 861.709 355.342L893.682 382.578C899.692 375.522 903.496 367.259 905.375 358.336L864.276 349.684ZM861.416 355.695C860.172 357.222 858.592 358.486 856.356 359.502L873.735 397.738C881.619 394.154 888.473 388.978 893.975 382.225L861.416 355.695ZM856.356 359.502C854.361 360.409 851.708 361.07 848.025 361.07V403.07C856.917 403.07 865.61 401.431 873.735 397.738L856.356 359.502Z" fill="black" mask="url(#path-2-outside-1_2_6)"/>
</g>
<defs>
<clipPath id="clip0_2_6">
<rect width="1017" height="610" fill="white"/>
</clipPath>
</defs>
</svg>
